PathFileType	4	(X/Y/Z)	C:/ViconProjects/foot_20160225/trc/2_test01_dynamic.trc
DataRate	CameraRate	NumFrames	NumMarkers	Units	OrigDataRate	OrigDataStartFrame	OrigNumFrames
120.000000	120.000000	4	39	mm	120.000000	342	682
Frame#	Time	RCUNE			RNAVI			RMT3			LCUNE			LNAVI			LMT3			ROHEL			RIHEL			LOHEL			LIHEL			RSHAN			LSHAN			RTHI			LTHI			ROWR			RELB			RBSH			LOWR			LELB			LBSH			RHEAD			THEAD			FHEAD			T10			RTOE			RHEL			RMT1			RMT5			RANK			RKNE			LTOE			LHEL			LMT1			LMT5			LANK			LKNE			VBWT			RFWT			LFWT			
		X0	Y0	Z0	X1	Y1	Z1	X2	Y2	Z2	X3	Y3	Z3	X4	Y4	Z4	X5	Y5	Z5	X6	Y6	Z6	X7	Y7	Z7	X8	Y8	Z8	X9	Y9	Z9	X10	Y10	Z10	X11	Y11	Z11	X12	Y12	Z12	X13	Y13	Z13	X14	Y14	Z14	X15	Y15	Z15	X16	Y16	Z16	X17	Y17	Z17	X18	Y18	Z18	X19	Y19	Z19	X20	Y20	Z20	X21	Y21	Z21	X22	Y22	Z22	X23	Y23	Z23	X24	Y24	Z24	X25	Y25	Z25	X26	Y26	Z26	X27	Y27	Z27	X28	Y28	Z28	X29	Y29	Z29	X30	Y30	Z30	X31	Y31	Z31	X32	Y32	Z32	X33	Y33	Z33	X34	Y34	Z34	X35	Y35	Z35	X36	Y36	Z36	X37	Y37	Z37	X38	Y38	Z38	
342	2.850000	1261.710327	295.104675	154.952469	1216.094849	204.889984	167.868057	1185.502930	280.566345	88.941589	1042.052612	24.883169	35.865711	1026.341797	125.579613	50.437439	937.954712	47.472012	41.307281	1296.826904	258.310822	219.301193	1275.141846	189.896942	211.778580	1117.880981	48.550171	45.775501	1110.978516	121.168404	47.409161	1095.288452	242.609497	294.990356	999.776794	91.292717	327.349121	886.492798	287.207458	597.226685	920.816467	58.575809	630.516907	985.696594	457.947601	879.512512	1107.505127	453.361420	1114.726074	1035.299683	339.684845	1425.396973	935.567810	-188.030243	872.268616	1031.157715	-180.238480	1111.798096	995.820190	-64.065292	1426.739136	1059.255249	153.202621	1665.318237	944.039185	158.669098	1722.378052	842.297852	151.618805	1627.852173	1167.667480	65.320732	1290.817261	1148.710205	271.434937	61.349800	1311.803589	212.193542	240.862152	1168.877930	247.456161	90.404472	1223.532715	311.283752	104.372887	1264.729858	287.472290	214.935669	969.064270	332.652496	483.120605	893.558167	76.962540	36.197411	1145.462402	87.442421	47.531929	929.131409	87.303703	44.754108	980.149292	13.055880	40.163460	1078.226196	33.300640	63.057892	999.437317	8.391630	465.374420	1202.858765	120.070213	956.339539	991.109680	282.475433	953.769409	966.132751	-1.380730	955.436096
343	2.858333	1229.386719	294.548279	148.090561	1184.325928	204.728745	163.095642	1149.781616	279.876190	86.136528	1042.076416	24.976259	35.963730	1026.266479	125.640060	50.307190	937.973450	47.492981	41.246639	1272.438110	259.534973	210.586975	1245.647461	189.540085	204.352539	1117.786865	48.673290	45.965080	1110.677856	121.401787	47.641479	1068.776611	242.108490	294.004669	997.219238	91.320732	326.979736	869.372681	287.227570	602.567566	915.162231	58.102638	628.337646	984.186523	458.615631	877.901550	1100.448853	452.460114	1115.596802	1025.476929	339.407257	1425.503662	911.599976	-184.860764	874.984131	1013.096313	-180.095947	1112.032471	983.775146	-63.697330	1427.902466	1047.974976	153.208786	1665.649414	933.239014	158.810379	1722.671387	832.053833	152.163940	1628.202148	1156.481934	64.252937	1291.575317	1111.913452	271.477661	60.869091	1283.651123	211.066925	231.513947	1133.428101	246.715195	88.029327	1188.955566	310.768707	99.829460	1233.996704	286.113342	207.649612	949.057800	332.766144	486.238373	893.344299	76.775093	36.176510	1145.656982	87.646507	47.975342	928.962585	87.292961	44.650131	979.512512	13.559650	40.179279	1078.134399	33.430069	63.106110	997.106995	8.324250	464.877686	1191.954468	120.822906	956.772949	979.475220	281.000641	955.880371	956.043762	-2.553660	955.540955
344	2.866667	1196.217896	294.242035	141.282608	1152.338989	204.276489	157.791214	1114.431641	279.535583	83.266289	1042.003052	25.127411	35.976688	1025.924683	125.689491	50.217129	937.868652	47.557270	41.144131	1242.454468	258.518616	201.451492	1215.763062	188.413223	195.924561	1117.580200	48.757462	46.224751	1110.477051	121.603317	47.906620	1042.229980	241.230209	292.542206	995.655762	91.312286	326.570740	851.635498	287.047821	607.789795	908.555908	57.638130	627.007996	981.833069	458.450836	875.888550	1093.599365	451.681671	1116.345581	1015.678284	339.266724	1425.443848	888.167175	-181.903290	877.819397	995.815430	-179.850143	1112.499512	972.041321	-63.890171	1428.517456	1037.249756	153.243301	1666.002563	921.970520	159.082382	1722.842773	820.862488	152.956680	1627.945923	1145.114136	63.201920	1292.046265	1075.286743	271.199860	59.711189	1254.530640	210.008423	221.572250	1098.121582	246.772873	85.552719	1153.585449	310.590240	95.510612	1205.036987	285.981628	200.479156	930.061707	332.251038	489.336060	893.256836	76.629440	36.177551	1145.198608	88.008537	48.256859	928.800964	87.265373	44.617168	979.485596	13.614800	40.102470	1078.084595	33.679298	63.213570	994.444763	8.267410	464.499573	1181.871704	121.615669	957.266602	968.049011	279.905029	957.091858	946.138977	-3.396030	955.346680
345	2.875000	1162.620239	293.855072	133.846756	1119.910645	203.831375	151.941162	1078.817505	279.399109	80.063431	1042.786133	25.921150	35.623402	1025.968628	125.642807	50.013821	937.880676	47.607841	41.044201	1212.941162	258.113647	192.417328	1184.588135	187.730911	187.016312	1115.734863	50.056721	45.375420	1110.818237	121.733902	47.740379	1015.199402	240.709106	291.294861	993.705872	91.140121	326.131775	834.652771	287.241058	612.688538	902.875854	57.192139	625.262756	980.389221	458.623901	874.126709	1086.734009	450.970886	1117.047363	1005.445740	339.073486	1425.193848	864.719543	-178.536636	880.659363	977.664978	-180.128830	1112.099487	959.949097	-63.299339	1429.215942	1025.606689	153.339737	1666.167603	910.764771	159.692856	1722.672974	808.805176	153.256302	1627.887085	1134.039185	62.364269	1292.152466	1038.131836	271.600708	58.944050	1224.994995	209.224640	210.834671	1062.397705	246.325928	82.604538	1118.529419	310.765869	90.304520	1174.272583	285.409180	192.591705	911.303589	332.585541	492.435333	893.108704	76.462029	36.156719	1145.272217	87.992493	48.848389	928.661560	87.171677	44.508678	980.023743	12.978010	40.116600	1076.991577	33.625721	63.572250	991.289856	8.155590	464.015228	1171.571655	122.370667	957.172791	956.906738	279.074615	958.305420	936.746155	-4.670330	954.937439
